<?xml version="1.0" standalone="no"?>
<!DOCTYPE svg PUBLIC "-//W3C//DTD SVG 20010904//EN"
 "http://www.w3.org/TR/2001/REC-SVG-20010904/DTD/svg10.dtd">
<svg version="1.0" xmlns="http://www.w3.org/2000/svg"
 width="512.000000pt" height="512.000000pt" viewBox="0 0 512.000000 512.000000"
 preserveAspectRatio="xMidYMid meet">

<g transform="translate(0.000000,512.000000) scale(0.100000,-0.100000)"
fill="#000000" stroke="none">
<path d="M1260 4781 c-83 -27 -151 -94 -169 -166 -6 -24 -11 -73 -11 -109 l0
-64 -247 -4 -248 -3 -57 -28 c-72 -35 -133 -104 -153 -170 -13 -43 -15 -181
-15 -952 l0 -902 -52 -6 c-59 -7 -92 -28 -125 -77 l-23 -33 0 -910 0 -909 22
-39 c14 -25 37 -46 63 -59 40 -20 62 -20 936 -20 860 0 896 1 936 20 25 11 51
33 63 52 19 31 20 50 20 316 l0 282 329 0 330 0 46 -88 c139 -263 395 -466
684 -543 385 -101 800 18 1073 309 448 477 381 1232 -146 1624 -81 60 -227
137 -303 159 l-43 12 0 871 0 871 -24 50 c-29 62 -86 117 -151 147 -47 22 -64
23 -297 26 l-248 4 0 82 c0 68 -4 91 -26 134 -80 160 -301 172 -401 21 -25
-38 -28 -53 -31 -141 l-4 -98 -244 0 -244 0 0 73 c0 102 -21 157 -81 211 -94
85 -219 84 -312 -3 -49 -45 -69 -97 -75 -193 l-5 -88 -237 0 -238 0 -4 88 c-5
93 -20 135 -67 185 -52 57 -157 89 -221 68z m109 -119 c65 -35 72 -63 69 -274
-3 -213 -9 -230 -85 -257 -35 -13 -46 -13 -78 0 -74 28 -80 46 -83 257 -3 213
4 243 68 274 44 23 67 23 109 0z m946 4 c67 -28 75 -57 75 -266 0 -167 -2
-188 -20 -218 -61 -100 -208 -67 -225 52 -4 24 -5 115 -3 202 3 176 10 198 71
228 40 19 59 20 102 2z m950 0 c67 -28 75 -57 75 -266 0 -204 -4 -220 -59
-257 -40 -27 -71 -29 -117 -7 -59 28 -64 50 -64 267 0 184 1 196 22 222 20 26
69 54 96 55 7 0 28 -6 47 -14z m-2185 -394 c0 -80 24 -144 71 -191 97 -97 241
-93 333 10 48 53 66 105 66 188 l0 51 239 0 238 0 6 -74 c6 -88 31 -140 87
-189 107 -91 269 -65 344 56 24 40 30 62 34 128 l5 79 241 -2 241 -3 6 -80 c6
-86 21 -125 66 -166 49 -47 93 -63 164 -64 56 0 73 4 115 30 30 19 60 49 79
79 25 42 31 62 34 128 l3 79 237 -3 c265 -3 287 -8 339 -76 l27 -35 3 -264 3
-263 -1796 0 -1795 0 0 247 c0 229 1 250 21 289 20 43 64 78 117 94 15 5 127
9 250 9 l222 1 0 -58z m2980 -1232 l0 -541 -37 8 c-21 4 -96 7 -168 7 -120 -1
-212 -15 -332 -50 -21 -6 -23 -3 -23 38 0 31 -7 54 -22 73 -38 49 -70 55 -273
55 -203 0 -235 -6 -273 -55 -21 -26 -22 -38 -22 -214 0 -203 4 -221 56 -256
l30 -20 -27 -38 c-75 -103 -147 -277 -174 -420 -26 -137 -16 -384 20 -499 6
-17 -7 -18 -305 -18 l-311 0 3 113 3 112 148 5 149 5 29 33 29 32 0 191 c0
274 -4 279 -225 279 l-135 0 0 100 0 100 118 0 c139 0 182 10 216 51 26 30 26
31 26 223 0 181 -1 195 -21 220 -41 51 -62 56 -269 56 -271 0 -293 -12 -298
-161 l-4 -89 -174 0 -174 0 0 80 c0 157 -22 170 -289 170 -216 0 -247 -7 -281
-62 -15 -26 -20 -50 -20 -110 l0 -78 -280 0 -280 0 0 600 0 600 1795 0 1795 0
0 -540z m-2550 -590 l0 -70 -185 0 -185 0 0 63 c0 35 3 67 7 70 3 4 87 7 185
7 l178 0 0 -70z m938 -92 l-3 -163 -120 0 -120 0 -5 46 c-7 60 -33 98 -81 118
l-39 16 0 73 0 72 185 0 185 0 -2 -162z m942 108 l0 -55 -78 -46 c-43 -26
-113 -76 -155 -111 -61 -51 -83 -65 -105 -62 l-27 3 -3 163 -2 162 185 0 185
0 0 -54z m711 -87 c176 -44 387 -170 498 -298 175 -202 261 -445 247 -701 -14
-288 -142 -541 -361 -716 -399 -320 -956 -289 -1315 75 -188 189 -281 418
-281 691 0 263 89 482 272 675 150 157 359 264 581 295 92 13 263 3 359 -21z
m-3201 -412 c0 -287 1 -305 19 -321 36 -32 61 -16 161 103 53 63 99 114 103
113 5 0 51 -53 103 -116 80 -98 100 -116 124 -116 15 0 33 6 39 13 7 9 12 114
13 318 l3 304 299 3 c212 2 303 -1 312 -9 19 -16 21 -1788 2 -1807 -16 -16
-1759 -18 -1789 -2 -19 10 -19 31 -19 905 0 841 1 895 18 904 10 6 131 11 315
11 l297 0 0 -303z m450 93 c0 -115 -2 -210 -3 -210 -2 0 -34 36 -71 80 -90
107 -101 107 -186 3 -35 -43 -67 -82 -72 -87 -4 -6 -8 88 -8 207 l0 217 170 0
170 0 0 -210z m1100 -450 l0 -160 -125 0 -125 0 0 160 0 160 125 0 125 0 0
-160z"/>
<path d="M1111 3367 c-19 -6 -44 -25 -55 -40 -19 -26 -21 -44 -24 -212 -4
-205 2 -229 61 -265 29 -18 51 -20 230 -20 303 0 297 -5 297 269 0 284 8 275
-275 278 -139 2 -210 -1 -234 -10z m399 -262 l0 -165 -185 0 -185 0 0 158 c0
87 3 162 7 165 3 4 87 7 185 7 l178 0 0 -165z"/>
<path d="M2050 3367 c-19 -7 -44 -27 -57 -46 -22 -32 -23 -43 -23 -215 0 -200
4 -216 59 -253 33 -22 42 -23 233 -23 303 0 298 -4 298 279 0 189 0 190 -26
220 -14 17 -42 35 -62 41 -52 14 -378 12 -422 -3z m400 -262 l0 -165 -185 0
-185 0 0 158 c0 87 3 162 7 165 3 4 87 7 185 7 l178 0 0 -165z"/>
<path d="M2994 3369 c-16 -5 -41 -20 -55 -35 -24 -25 -24 -29 -27 -224 l-3
-199 35 -38 34 -38 227 0 227 0 34 38 35 38 -3 199 c-3 194 -4 199 -27 224
-14 14 -41 30 -60 36 -44 12 -374 12 -417 -1z m396 -264 l0 -165 -185 0 -185
0 0 158 c0 87 3 162 7 165 3 4 87 7 185 7 l178 0 0 -165z"/>
<path d="M3727 2310 c-214 -36 -425 -160 -557 -326 -215 -270 -256 -642 -105
-949 89 -182 221 -316 400 -405 147 -74 230 -93 400 -94 115 0 155 4 223 22
504 136 788 651 630 1142 -100 312 -372 549 -693 605 -93 16 -218 18 -298 5z
m338 -124 c140 -38 303 -138 389 -239 142 -168 203 -345 194 -561 -18 -400
-329 -715 -733 -743 -225 -15 -436 66 -601 231 -125 126 -191 256 -221 437
-14 87 -15 115 -5 196 23 181 89 326 205 449 126 135 282 219 462 247 57 10
250 -2 310 -17z"/>
<path d="M3810 2070 l0 -50 55 0 55 0 0 50 0 50 -55 0 -55 0 0 -50z"/>
<path d="M3826 1918 c-13 -18 -16 -54 -16 -190 0 -158 -1 -167 -20 -173 -36
-11 -70 -74 -70 -129 0 -93 62 -151 160 -149 54 1 56 0 122 -63 69 -67 94 -76
121 -46 30 33 20 61 -48 131 -60 63 -64 69 -59 103 9 52 -12 103 -57 141 l-39
34 0 169 c0 119 -4 174 -12 182 -20 20 -65 14 -82 -10z m68 -464 c9 -8 16 -22
16 -29 0 -13 -26 -45 -36 -45 -39 0 -59 60 -26 79 23 14 28 14 46 -5z"/>
<path d="M3170 1425 l0 -55 50 0 50 0 0 55 0 55 -50 0 -50 0 0 -55z"/>
<path d="M4470 1425 l0 -55 50 0 50 0 0 55 0 55 -50 0 -50 0 0 -55z"/>
<path d="M3810 780 l0 -50 55 0 55 0 0 50 0 50 -55 0 -55 0 0 -50z"/>
<path d="M386 904 c-22 -21 -20 -50 4 -74 19 -19 33 -20 211 -20 110 0 198 4
209 10 34 18 44 48 25 76 l-15 24 -210 0 c-176 0 -211 -2 -224 -16z"/>
<path d="M392 674 c-27 -18 -29 -55 -4 -77 16 -15 47 -17 225 -17 206 0 207 0
222 24 18 27 7 69 -20 80 -9 3 -103 6 -209 6 -157 0 -196 -3 -214 -16z"/>
</g>
</svg>
