<?xml version="1.0" standalone="no"?>
<!DOCTYPE svg PUBLIC "-//W3C//DTD SVG 20010904//EN"
 "http://www.w3.org/TR/2001/REC-SVG-20010904/DTD/svg10.dtd">
<svg version="1.0" xmlns="http://www.w3.org/2000/svg"
 width="512.000000pt" height="512.000000pt" viewBox="0 0 512.000000 512.000000"
 preserveAspectRatio="xMidYMid meet">

<g transform="translate(0.000000,512.000000) scale(0.100000,-0.100000)"
fill="#000000" stroke="none">
<path d="M2906 5109 c-436 -64 -804 -393 -916 -818 -143 -539 146 -1108 665
-1310 348 -136 720 -96 1035 111 36 23 106 83 156 133 486 480 430 1262 -119
1676 -225 169 -539 249 -821 208z m389 -329 c221 -70 391 -214 490 -415 66
-132 80 -195 80 -355 0 -160 -14 -223 -80 -355 -100 -203 -270 -346 -495 -417
-65 -20 -96 -23 -225 -23 -129 0 -160 3 -225 23 -274 87 -482 300 -557 572
-25 91 -24 310 1 400 61 220 212 409 406 509 145 75 221 91 400 87 105 -3 151
-9 205 -26z"/>
<path d="M3375 4422 c-16 -10 -126 -121 -244 -246 -117 -125 -215 -225 -216
-224 -1 2 -33 39 -69 83 -88 105 -117 125 -180 125 -64 0 -112 -30 -137 -84
-23 -52 -24 -83 -1 -127 23 -46 277 -346 305 -361 33 -17 131 -14 161 5 31 21
575 598 593 629 19 35 16 108 -7 146 -42 68 -139 94 -205 54z"/>
<path d="M350 4718 c-88 -45 -112 -149 -53 -226 44 -58 64 -62 345 -62 l253 0
333 -1413 c184 -776 334 -1420 335 -1429 1 -11 -69 -72 -208 -178 -246 -189
-278 -218 -313 -285 -24 -44 -27 -61 -27 -150 0 -87 3 -107 26 -156 37 -79 90
-133 167 -171 l67 -33 238 -3 238 -4 -8 -31 c-4 -18 -8 -77 -8 -132 0 -95 2
-104 38 -178 167 -353 667 -353 834 0 36 74 38 83 38 178 0 55 -4 115 -8 132
l-9 33 417 0 416 0 -6 -21 c-48 -150 -1 -335 115 -450 183 -183 471 -184 654
-1 117 117 159 270 120 444 l-6 28 194 0 c181 0 197 1 238 22 88 45 112 149
53 226 -50 66 76 62 -1791 62 -1846 0 -1733 -3 -1718 52 4 15 91 88 241 203
l236 180 1382 5 1382 5 63 34 c112 61 179 164 188 288 12 178 33 1591 24 1631
-25 106 -101 201 -200 246 -57 27 -128 34 -172 17 -36 -14 -77 -60 -88 -100
-20 -74 38 -173 109 -187 17 -4 36 -13 42 -20 9 -11 8 -207 -4 -801 -15 -728
-17 -788 -33 -800 -14 -10 -278 -13 -1320 -13 l-1302 0 -7 33 c-4 17 -112 486
-241 1042 -128 555 -231 1011 -229 1013 2 2 59 -4 125 -13 137 -20 186 -17
228 14 86 61 76 207 -17 255 -15 8 -112 27 -217 42 -104 15 -193 30 -197 34
-4 4 -40 133 -80 287 -40 154 -81 292 -90 307 -10 15 -37 36 -60 47 -38 17
-70 19 -362 19 -313 0 -322 -1 -365 -22z m1920 -4130 c54 -37 74 -72 74 -128
0 -117 -138 -193 -234 -127 -54 36 -74 71 -74 127 0 84 68 150 154 150 32 0
57 -7 80 -22z m1708 2 c96 -59 96 -201 0 -260 -73 -44 -181 -12 -218 65 -25
52 -25 78 1 132 37 77 144 108 217 63z"/>
</g>
</svg>
