<?xml version="1.0" standalone="no"?>
<!DOCTYPE svg PUBLIC "-//W3C//DTD SVG 20010904//EN"
 "http://www.w3.org/TR/2001/REC-SVG-20010904/DTD/svg10.dtd">
<svg version="1.0" xmlns="http://www.w3.org/2000/svg"
 width="512.000000pt" height="512.000000pt" viewBox="0 0 512.000000 512.000000"
 preserveAspectRatio="xMidYMid meet">

<g transform="translate(0.000000,512.000000) scale(0.100000,-0.100000)"
fill="#000000" stroke="none">
<path d="M1643 4565 c-34 -195 -178 -341 -373 -376 l-70 -12 0 -74 0 -73 34 0
c46 0 145 -32 199 -63 59 -35 139 -124 172 -192 15 -30 32 -87 38 -125 l11
-70 71 0 71 0 11 70 c27 172 153 314 322 364 30 9 70 16 88 16 l33 0 0 73 0
74 -70 12 c-195 35 -339 181 -373 376 l-11 65 -71 0 -71 0 -11 -65z m140 -306
c33 -43 108 -110 155 -139 15 -9 14 -12 -7 -28 -71 -49 -151 -129 -191 -191
l-15 -23 -32 44 c-41 57 -108 124 -155 156 -44 29 -46 35 -15 49 38 18 135
112 169 165 28 43 34 48 43 33 5 -10 27 -40 48 -66z"/>
<path d="M3020 4405 l0 -75 75 0 75 0 0 75 0 75 -75 0 -75 0 0 -75z"/>
<path d="M2720 4105 l0 -75 75 0 75 0 0 75 0 75 -75 0 -75 0 0 -75z"/>
<path d="M3320 4105 l0 -75 75 0 75 0 0 75 0 75 -75 0 -75 0 0 -75z"/>
<path d="M3020 3805 l0 -75 75 0 75 0 0 75 0 75 -75 0 -75 0 0 -75z"/>
<path d="M372 3648 l3 -73 75 0 75 0 3 73 3 72 -81 0 -81 0 3 -72z"/>
<path d="M4063 3505 c-34 -195 -178 -341 -373 -376 l-70 -12 0 -74 0 -73 34 0
c46 0 145 -32 199 -63 59 -35 139 -124 172 -192 15 -30 32 -87 38 -125 l11
-70 71 0 71 0 11 70 c27 172 153 314 322 364 30 9 70 16 88 16 l33 0 0 73 0
74 -70 12 c-195 35 -339 181 -373 376 l-11 65 -71 0 -71 0 -11 -65z m140 -306
c33 -43 108 -110 155 -139 15 -9 14 -12 -7 -28 -58 -40 -108 -88 -155 -145
-27 -34 -50 -62 -51 -62 -1 0 -23 27 -50 59 -51 63 -100 110 -146 139 -35 23
-36 31 -6 44 38 18 135 112 169 165 28 43 34 48 43 33 5 -10 27 -40 48 -66z"/>
<path d="M72 3348 l3 -73 75 0 75 0 3 73 3 72 -81 0 -81 0 3 -72z"/>
<path d="M672 3348 l3 -73 75 0 75 0 3 73 3 72 -81 0 -81 0 3 -72z"/>
<path d="M372 3048 l3 -73 75 0 75 0 3 73 3 72 -81 0 -81 0 3 -72z"/>
<path d="M671 2583 l-192 -227 43 -38 c24 -21 50 -42 59 -47 12 -8 49 31 183
190 l168 199 69 0 70 0 -25 -42 c-38 -66 -372 -660 -385 -685 l-12 -23 726 0
725 0 0 375 0 375 75 0 75 0 0 -375 0 -375 1005 0 1005 0 112 -150 113 -150
176 0 177 0 51 -207 c29 -115 54 -216 57 -226 5 -16 -7 -17 -202 -15 l-207 3
-14 60 c-33 145 -136 288 -266 369 -203 126 -450 122 -649 -10 -124 -83 -219
-218 -251 -359 l-14 -60 -880 -3 -880 -2 -17 67 c-51 210 -204 371 -411 436
-97 30 -243 30 -340 -1 -200 -62 -362 -233 -411 -434 l-17 -68 -118 0 -119 0
0 288 0 287 76 90 c292 345 269 313 248 336 -11 12 -36 34 -56 50 l-37 30
-190 -225 -191 -225 0 -540 0 -541 256 0 256 0 66 -60 c113 -104 256 -160 407
-160 151 0 294 56 407 160 l66 60 393 2 394 3 3 72 3 73 -355 0 -355 0 13 38
c7 20 16 54 20 75 l7 37 882 0 883 0 12 -52 c6 -29 14 -63 18 -75 l6 -23 -341
0 -341 0 0 -75 0 -75 388 0 387 -1 49 -49 c59 -61 139 -110 226 -141 94 -34
286 -34 380 0 87 31 164 79 225 140 l50 51 358 0 357 0 0 198 0 197 -85 334
c-57 227 -95 356 -116 400 -44 90 -127 171 -202 199 -56 21 -72 22 -457 22
l-399 0 -337 375 -338 375 -1162 0 -1162 0 -191 -227z m1279 -223 l0 -300
-520 0 c-286 0 -520 3 -520 6 0 3 75 138 166 300 l166 294 354 0 354 0 0 -300z
m1434 5 c146 -162 266 -297 266 -300 0 -3 -281 -5 -625 -5 l-625 0 0 300 0
300 359 0 360 0 265 -295z m1301 -478 c22 -12 55 -45 73 -72 l34 -50 -114 -3
-113 -3 -26 31 c-15 17 -41 51 -58 76 l-32 44 98 0 c83 0 104 -4 138 -23z
m-3619 -358 c84 -16 156 -53 224 -116 186 -172 190 -467 11 -643 -98 -95 -213
-137 -353 -127 -130 9 -245 73 -325 181 -62 84 -86 171 -81 289 3 77 9 103 35
159 53 113 144 196 258 236 95 34 141 38 231 21z m2974 -5 c245 -55 398 -306
334 -549 -19 -74 -54 -135 -113 -198 -235 -251 -668 -138 -755 198 -63 239 82
484 323 547 83 21 125 22 211 2z m-3633 -589 l20 -75 -139 0 -138 0 0 75 0 75
118 0 119 0 20 -75z m4563 0 l0 -75 -236 0 -236 0 6 23 c4 12 12 46 18 75 l12
52 218 0 218 0 0 -75z"/>
<path d="M2622 2438 l3 -73 75 0 75 0 3 73 3 72 -81 0 -81 0 3 -72z"/>
<path d="M2922 2438 l3 -73 75 0 75 0 3 73 3 72 -81 0 -81 0 3 -72z"/>
<path d="M910 1377 c-226 -64 -297 -344 -129 -506 114 -109 302 -108 414 4
148 149 102 401 -90 486 -56 25 -140 32 -195 16z m140 -159 c55 -28 82 -72 82
-134 0 -104 -119 -177 -210 -130 -54 28 -75 62 -79 124 -5 72 19 115 80 142
54 25 73 25 127 -2z"/>
<path d="M3875 1381 c-91 -23 -171 -89 -208 -170 -33 -70 -31 -189 5 -256 118
-224 421 -219 540 8 33 62 32 184 -1 251 -30 61 -87 117 -146 145 -50 24 -143
34 -190 22z m118 -155 c67 -27 108 -105 92 -175 -10 -45 -63 -98 -108 -106
-59 -11 -107 3 -143 41 -54 57 -57 135 -7 195 46 55 105 71 166 45z"/>
<path d="M2100 1535 l0 -225 75 0 75 0 0 225 0 225 -75 0 -75 0 0 -225z"/>
<path d="M2400 785 l0 -76 73 3 72 3 3 73 3 72 -76 0 -75 0 0 -75z"/>
</g>
</svg>
